<svg width="1000" height="579" viewBox="0 0 1000 579" fill="none" xmlns="http://www.w3.org/2000/svg">
<path d="M0 73C0 37.6538 28.6538 9 64 9H936C971.346 9 1000 37.6538 1000 73V409H0V73Z" fill="#DF3F8C"/>
<path d="M744.318 575.667C888.799 575.667 969.426 499.196 1000 460.961V242.333L0 288.412V464.883C0 509.981 57.9546 575.667 156.656 575.667C280.033 575.667 314.123 460.961 413.961 460.961C495.942 460.961 599.838 575.667 744.318 575.667Z" fill="#222831"/>
<path d="M255.682 578.431C111.201 578.431 30.5736 501.961 0 463.725V303.921L1000 350V467.647C1000 512.745 942.045 578.431 843.344 578.431C719.968 578.431 685.877 463.725 586.039 463.725C504.058 463.725 400.162 578.431 255.682 578.431Z" fill="#76ABAE"/>
<path d="M0 0H1000V400H0V0Z" fill="#76ABAE"/>
<mask id="mask0_232_2" style="mask-type:alpha" maskUnits="userSpaceOnUse" x="0" y="205" width="1000" height="374">
<path d="M255.682 578.431C111.201 578.431 30.5736 501.961 0 463.725V205.882L1000 251.961V467.647C1000 512.745 942.045 578.431 843.344 578.431C719.968 578.431 685.877 463.725 586.039 463.725C504.058 463.725 400.162 578.431 255.682 578.431Z" fill="#76ABAE"/>
</mask>
<g mask="url(#mask0_232_2)">
<path d="M172.566 570.588C120.035 577.733 7.06149 581.373 -11.9789 570.588L-64.7061 608.824L29.7635 642.157L141.809 725.49L575.709 560.785L930.519 658.824V579.412C793.209 579.412 757.418 419.608 610.757 419.608C474.374 419.608 403.248 539.216 172.566 570.588Z" fill="url(#paint0_linear_232_2)"/>
</g>
<defs>
<linearGradient id="paint0_linear_232_2" x1="432.907" y1="425.49" x2="432.907" y2="725.49" gradientUnits="userSpaceOnUse">
<stop stop-color="#31363F"/>
<stop offset="0.746259" stop-color="#31363F" stop-opacity="0"/>
</linearGradient>
</defs>
</svg>
